<mxfile host="app.diagrams.net" modified="2021-11-26T14:37:20.986Z" agent="5.0 (Windows NT 10.0; WOW64) AppleWebKit/537.36 (KHTML, like Gecko) Chrome/96.0.4664.45 Safari/537.36" etag="Uc7ndpY61QhOPg1ECCMC" version="15.8.3" type="github">
  <diagram id="fPAhbSJ2FkDGbBEq6Rvw" name="Page-1">
    <mxGraphModel dx="1422" dy="762" grid="1" gridSize="10" guides="1" tooltips="1" connect="1" arrows="1" fold="1" page="1" pageScale="1" pageWidth="1654" pageHeight="2336" math="0" shadow="0">
      <root>
        <mxCell id="0" />
        <mxCell id="1" parent="0" />
        <mxCell id="nSLxvLHa6ist5dvz883o-9" value="" style="endArrow=classic;html=1;rounded=0;strokeColor=#1A1A1A;fontStyle=1;fontSize=20;fontFamily=Times New Roman;spacing=20;" edge="1" parent="1">
          <mxGeometry width="50" height="50" relative="1" as="geometry">
            <mxPoint x="192" y="420" as="sourcePoint" />
            <mxPoint x="1462" y="420" as="targetPoint" />
          </mxGeometry>
        </mxCell>
        <mxCell id="nSLxvLHa6ist5dvz883o-12" value="GĐ1" style="shape=ext;double=1;rounded=0;whiteSpace=wrap;html=1;fontFamily=Times New Roman;fontSize=20;" vertex="1" parent="1">
          <mxGeometry x="272" y="350" width="70" height="30" as="geometry" />
        </mxCell>
        <mxCell id="nSLxvLHa6ist5dvz883o-14" value="11/10/2021" style="text;html=1;align=center;verticalAlign=middle;resizable=0;points=[];autosize=1;strokeColor=none;fillColor=none;fontSize=20;fontFamily=Times New Roman;" vertex="1" parent="1">
          <mxGeometry x="150" y="525" width="110" height="30" as="geometry" />
        </mxCell>
        <mxCell id="nSLxvLHa6ist5dvz883o-15" value="" style="endArrow=classic;html=1;rounded=0;fontFamily=Times New Roman;fontSize=20;strokeColor=#1A1A1A;" edge="1" parent="1">
          <mxGeometry width="50" height="50" relative="1" as="geometry">
            <mxPoint x="201.5" y="380" as="sourcePoint" />
            <mxPoint x="201.5" y="510" as="targetPoint" />
          </mxGeometry>
        </mxCell>
        <mxCell id="nSLxvLHa6ist5dvz883o-16" value="" style="endArrow=classic;html=1;rounded=0;fontFamily=Times New Roman;fontSize=20;strokeColor=#1A1A1A;" edge="1" parent="1">
          <mxGeometry width="50" height="50" relative="1" as="geometry">
            <mxPoint x="402" y="380" as="sourcePoint" />
            <mxPoint x="402" y="510" as="targetPoint" />
          </mxGeometry>
        </mxCell>
        <mxCell id="nSLxvLHa6ist5dvz883o-17" value="18/10/2021" style="text;html=1;align=center;verticalAlign=middle;resizable=0;points=[];autosize=1;strokeColor=none;fillColor=none;fontSize=20;fontFamily=Times New Roman;" vertex="1" parent="1">
          <mxGeometry x="352" y="525" width="110" height="30" as="geometry" />
        </mxCell>
        <mxCell id="nSLxvLHa6ist5dvz883o-18" value="" style="endArrow=classic;html=1;rounded=0;fontFamily=Times New Roman;fontSize=20;strokeColor=#1A1A1A;" edge="1" parent="1">
          <mxGeometry width="50" height="50" relative="1" as="geometry">
            <mxPoint x="632" y="380" as="sourcePoint" />
            <mxPoint x="632" y="510" as="targetPoint" />
          </mxGeometry>
        </mxCell>
        <mxCell id="nSLxvLHa6ist5dvz883o-19" value="01/11/2021" style="text;html=1;align=center;verticalAlign=middle;resizable=0;points=[];autosize=1;strokeColor=none;fillColor=none;fontSize=20;fontFamily=Times New Roman;" vertex="1" parent="1">
          <mxGeometry x="582" y="525" width="110" height="30" as="geometry" />
        </mxCell>
        <mxCell id="nSLxvLHa6ist5dvz883o-20" value="" style="endArrow=classic;html=1;rounded=0;fontFamily=Times New Roman;fontSize=20;strokeColor=#1A1A1A;" edge="1" parent="1">
          <mxGeometry width="50" height="50" relative="1" as="geometry">
            <mxPoint x="872" y="380" as="sourcePoint" />
            <mxPoint x="872" y="510" as="targetPoint" />
          </mxGeometry>
        </mxCell>
        <mxCell id="nSLxvLHa6ist5dvz883o-21" value="15/11/2021" style="text;html=1;align=center;verticalAlign=middle;resizable=0;points=[];autosize=1;strokeColor=none;fillColor=none;fontSize=20;fontFamily=Times New Roman;" vertex="1" parent="1">
          <mxGeometry x="822" y="525" width="110" height="30" as="geometry" />
        </mxCell>
        <mxCell id="nSLxvLHa6ist5dvz883o-22" value="" style="endArrow=classic;html=1;rounded=0;fontFamily=Times New Roman;fontSize=20;strokeColor=#1A1A1A;" edge="1" parent="1">
          <mxGeometry width="50" height="50" relative="1" as="geometry">
            <mxPoint x="1152" y="380" as="sourcePoint" />
            <mxPoint x="1152" y="510" as="targetPoint" />
          </mxGeometry>
        </mxCell>
        <mxCell id="nSLxvLHa6ist5dvz883o-23" value="29/11/2021" style="text;html=1;align=center;verticalAlign=middle;resizable=0;points=[];autosize=1;strokeColor=none;fillColor=none;fontSize=20;fontFamily=Times New Roman;" vertex="1" parent="1">
          <mxGeometry x="1102" y="525" width="110" height="30" as="geometry" />
        </mxCell>
        <mxCell id="nSLxvLHa6ist5dvz883o-24" value="" style="endArrow=classic;html=1;rounded=0;fontFamily=Times New Roman;fontSize=20;strokeColor=#1A1A1A;" edge="1" parent="1">
          <mxGeometry width="50" height="50" relative="1" as="geometry">
            <mxPoint x="1372" y="380" as="sourcePoint" />
            <mxPoint x="1372" y="510" as="targetPoint" />
          </mxGeometry>
        </mxCell>
        <mxCell id="nSLxvLHa6ist5dvz883o-25" value="11/12/2021" style="text;html=1;align=center;verticalAlign=middle;resizable=0;points=[];autosize=1;strokeColor=none;fillColor=none;fontSize=20;fontFamily=Times New Roman;" vertex="1" parent="1">
          <mxGeometry x="1322" y="525" width="110" height="30" as="geometry" />
        </mxCell>
        <mxCell id="nSLxvLHa6ist5dvz883o-26" value="GĐ5" style="shape=ext;double=1;rounded=0;whiteSpace=wrap;html=1;fontFamily=Times New Roman;fontSize=20;" vertex="1" parent="1">
          <mxGeometry x="1232" y="350" width="70" height="30" as="geometry" />
        </mxCell>
        <mxCell id="nSLxvLHa6ist5dvz883o-27" value="GĐ4" style="shape=ext;double=1;rounded=0;whiteSpace=wrap;html=1;fontFamily=Times New Roman;fontSize=20;" vertex="1" parent="1">
          <mxGeometry x="982" y="350" width="70" height="30" as="geometry" />
        </mxCell>
        <mxCell id="nSLxvLHa6ist5dvz883o-28" value="GĐ3" style="shape=ext;double=1;rounded=0;whiteSpace=wrap;html=1;fontFamily=Times New Roman;fontSize=20;" vertex="1" parent="1">
          <mxGeometry x="722" y="350" width="70" height="30" as="geometry" />
        </mxCell>
        <mxCell id="nSLxvLHa6ist5dvz883o-29" value="GĐ2" style="shape=ext;double=1;rounded=0;whiteSpace=wrap;html=1;fontFamily=Times New Roman;fontSize=20;" vertex="1" parent="1">
          <mxGeometry x="479" y="350" width="70" height="30" as="geometry" />
        </mxCell>
      </root>
    </mxGraphModel>
  </diagram>
</mxfile>
